<svg width="294" height="94" viewBox="0 0 294 94" fill="none" xmlns="http://www.w3.org/2000/svg">
<path d="M107.348 30.9518V60.3876H102.548L102.21 57.5228C100.612 60.0088 98.0433 60.8493 95.5158 60.8493C89.4132 60.8493 84.8199 56.8066 84.8199 49.9877C84.8199 42.8315 89.3244 39.1261 95.3915 39.1261C97.5816 39.1261 100.991 40.304 102.216 42.4527V30.9577H107.348V30.9518ZM89.9518 49.9877C89.9518 53.6102 92.5622 56.0903 95.8473 56.0903C99.091 56.0903 101.867 53.7345 101.867 49.9877C101.867 46.3652 99.085 43.9265 95.8473 43.9265C92.5681 43.9206 89.9518 46.2409 89.9518 49.9877Z" fill="url(#paint0_linear_1304_2614)"/>
<path d="M117.411 33.7753C117.411 37.7766 111.349 37.7766 111.349 33.7753C111.349 29.774 117.411 29.774 117.411 33.7753ZM111.811 39.5465V60.3877H116.949V39.5465H111.811Z" fill="url(#paint1_linear_1304_2614)"/>
<path d="M137.873 37.5221L141.661 40.3869L139.347 43.3347C140.945 45.1459 141.537 47.2058 141.537 49.4846C141.537 52.0535 140.566 55.6761 137.157 57.2328C140.608 58.9612 141.454 61.4413 141.454 64.099C141.454 69.8287 137.074 73.3624 131.054 73.3624C125.034 73.3624 120.524 69.6985 120.524 64.099H125.62C125.62 66.7922 128.107 68.562 131.054 68.562C134.002 68.562 136.316 66.9638 136.316 64.099C136.316 61.2341 133.623 59.9319 131.054 59.9319C124.567 59.9319 120.524 55.972 120.524 49.4906C120.524 43.0032 125.242 38.9604 131.054 38.9604C132.694 38.9604 134.381 39.1735 135.813 40.1383L137.873 37.5221ZM125.62 49.4846C125.62 53.1071 128.065 55.2558 131.054 55.2558C134.002 55.2558 136.447 53.0657 136.447 49.4846C136.447 45.9036 134.002 43.6306 131.054 43.6306C128.065 43.6306 125.62 45.8621 125.62 49.4846Z" fill="url(#paint2_linear_1304_2614)"/>
<path d="M150.428 33.7753C150.428 37.7766 144.366 37.7766 144.366 33.7753C144.366 29.774 150.428 29.774 150.428 33.7753ZM144.822 39.5465V60.3877H149.96V39.5465H144.822Z" fill="url(#paint3_linear_1304_2614)"/>
<path d="M162.597 35.9654H153.251V30.9105C161.757 30.9105 168.96 30.9105 177.508 30.9105V35.9654H168.155V60.3877H162.597V35.9654Z" fill="url(#paint4_linear_1304_2614)"/>
<path d="M202.853 60.3877H180.787C180.787 50.5738 180.787 40.7244 180.787 30.9105H202.853V36.3028H186.303V43.0802H202.261V48.2594H186.303V54.9125H202.853V60.3877Z" fill="url(#paint5_linear_1304_2614)"/>
<path d="M221.043 51.7103H212.703V60.3877H207.145V30.9105C211.779 30.9105 216.408 30.869 221.043 30.869C235.444 30.869 235.485 51.7103 221.043 51.7103ZM212.709 46.6198H221.049C228.163 46.6198 228.122 36.1785 221.049 36.1785H212.709V46.6198Z" fill="url(#paint6_linear_1304_2614)"/>
<path d="M249.508 51.7103H241.168V60.3877H235.61V30.9105C240.244 30.9105 244.873 30.869 249.508 30.869C263.909 30.869 263.956 51.7103 249.508 51.7103ZM241.174 46.6198H249.514C256.629 46.6198 256.587 36.1785 249.514 36.1785H241.174V46.6198Z" fill="url(#paint7_linear_1304_2614)"/>
<path d="M50.5186 49.0586C51.0454 49.6387 51.5012 50.4141 51.5781 51.2783C51.6077 51.6038 51.6136 51.9235 51.6077 52.249C51.6018 52.5746 51.584 52.912 51.5426 53.2375C51.5012 53.5631 51.442 53.8946 51.365 54.226C51.2881 54.5634 51.1875 54.8831 51.075 55.2145C50.6133 56.5226 49.8261 57.8071 48.7133 58.9258C47.6005 60.0445 46.1562 60.9975 44.4752 61.6427C42.7941 62.2879 40.8527 62.6312 38.8283 62.5424C37.6267 62.495 36.437 61.986 35.5906 61.2579C34.7441 60.524 34.2469 59.5888 34.2647 58.7068C34.2824 57.8249 34.7678 57.1797 35.4485 56.7831C35.7859 56.5878 36.1825 56.4457 36.6027 56.3747C37.023 56.3096 37.4788 56.2859 37.9464 56.3451C39.1124 56.4812 40.2726 56.3924 41.338 56.1083C41.8708 55.9722 42.3798 55.7709 42.8533 55.546C43.0901 55.4276 43.3209 55.2974 43.5459 55.1672C43.7649 55.0369 43.9839 54.8771 44.1851 54.7291C44.5936 54.4332 44.9605 54.0721 45.292 53.717C45.4577 53.5335 45.6116 53.3382 45.7537 53.1487C45.8958 52.9534 46.0319 52.764 46.1562 52.5509C46.6475 51.7341 46.973 50.8521 47.1506 49.9524C47.2276 49.5736 47.3341 49.2421 47.4643 48.9698C47.5294 48.8278 47.6005 48.7035 47.6715 48.591C47.707 48.5377 47.7484 48.4845 47.784 48.4371C47.8254 48.3898 47.8609 48.3424 47.9023 48.301C48.2338 47.9813 48.6245 47.8689 49.1394 48.0524C49.2519 48.0938 49.3703 48.1471 49.4887 48.2122C49.6071 48.2773 49.7195 48.3483 49.8379 48.4312C50.0687 48.6088 50.3055 48.8219 50.5186 49.0586Z" fill="url(#paint8_linear_1304_2614)"/>
<path d="M49.6485 50.6804C49.4117 51.4262 48.9678 52.2075 48.2516 52.7047C47.1921 53.4328 45.9491 53.9833 44.5877 54.2319C43.2203 54.4864 41.7228 54.445 40.1957 54.0425C38.6685 53.64 37.1236 52.8764 35.7149 51.734C34.3061 50.5975 33.0572 49.0763 32.1161 47.2769C31.5656 46.2114 31.388 44.927 31.6129 43.8379C31.6366 43.7017 31.6662 43.5656 31.7017 43.4354C31.7372 43.3052 31.7846 43.1809 31.8319 43.0566C31.9266 42.8139 32.045 42.583 32.1693 42.3759C32.4298 41.9615 32.7731 41.636 33.1519 41.417C33.9155 40.9908 34.7205 41.0855 35.4071 41.4761C35.7504 41.6715 36.0641 41.9438 36.3364 42.2693C36.4785 42.435 36.6087 42.6126 36.7211 42.802C36.8336 42.9914 36.9342 43.1986 37.0349 43.4176C37.4965 44.4949 38.1476 45.4597 38.929 46.2351C39.7103 47.0165 40.61 47.6143 41.5452 48.0168C42.0247 48.2121 42.4923 48.366 42.9777 48.4666C43.4512 48.5732 43.9425 48.6205 44.416 48.6324C44.8895 48.6442 45.369 48.6028 45.8188 48.5317C46.2805 48.4548 46.7304 48.3364 47.1625 48.1944C47.5235 48.0701 47.8728 47.9931 48.1746 47.9754C48.3226 47.9635 48.4706 47.9576 48.6067 47.9694C48.7429 47.9753 48.8613 48.0049 48.9796 48.0286C49.4354 48.1529 49.7255 48.4489 49.8202 48.9875C49.9089 49.461 49.8438 50.0589 49.6485 50.6804Z" fill="url(#paint9_linear_1304_2614)"/>
<path d="M57.4321 44.7909C57.4677 44.0037 57.6926 43.1395 58.2549 42.4706C58.468 42.2161 58.687 41.9912 58.9238 41.7603C59.1605 41.5354 59.4091 41.3105 59.6696 41.1092C59.93 40.908 60.2082 40.7126 60.4923 40.5351C60.7824 40.3516 61.0783 40.1977 61.398 40.0438C62.6528 39.446 64.1148 39.0908 65.6952 39.0908C67.2757 39.0849 68.9685 39.4341 70.614 40.1681C72.2596 40.9021 73.8755 42.0326 75.2428 43.5242C76.0596 44.4062 76.5391 45.6078 76.622 46.7206C76.6989 47.8393 76.3911 48.8514 75.7578 49.467C75.1244 50.0767 74.3194 50.1951 73.5618 49.9879C73.1889 49.8873 72.8041 49.7038 72.4549 49.4611C72.1116 49.2125 71.7742 48.9047 71.4841 48.5318C70.7561 47.6084 69.8741 46.8508 68.9152 46.3003C68.4417 46.0221 67.9386 45.8031 67.4473 45.6255C67.1928 45.5427 66.9383 45.4716 66.6897 45.4065C66.4411 45.3414 66.1806 45.3 65.932 45.2645C65.4348 45.1875 64.9198 45.1757 64.4345 45.1993C64.1918 45.2112 63.9432 45.2408 63.7064 45.2763C63.4637 45.3118 63.2388 45.3532 63.002 45.4124C62.0727 45.6433 61.2204 46.0399 60.4627 46.543C60.1431 46.762 59.8294 46.9159 59.5453 47.0165C59.3973 47.0698 59.2612 47.1112 59.1309 47.1349C59.0658 47.1467 59.0007 47.1586 58.9415 47.1586C58.8823 47.1645 58.8172 47.1704 58.758 47.1704C58.2963 47.1645 57.9412 46.9632 57.7103 46.472C57.6571 46.3654 57.6156 46.2411 57.5742 46.1109C57.5387 45.9807 57.5032 45.8504 57.4854 45.7084C57.4321 45.4302 57.4203 45.1106 57.4321 44.7909Z" fill="url(#paint10_linear_1304_2614)"/>
<path d="M59.196 44.2641C59.8945 43.903 60.7587 43.6662 61.617 43.8201C62.8777 44.0569 64.1503 44.5423 65.2868 45.3354C66.4292 46.1227 67.4651 47.2118 68.2582 48.5732C69.0514 49.9346 69.6019 51.5683 69.7913 53.3736C69.9807 55.173 69.7913 57.1323 69.1875 59.0678C68.8265 60.2102 68.0392 61.2401 67.1099 61.8557C66.9974 61.9327 66.8791 62.0096 66.7607 62.0747C66.6423 62.1398 66.518 62.199 66.3996 62.2523C66.1569 62.3588 65.9142 62.4358 65.6775 62.495C65.198 62.6015 64.7245 62.5897 64.3042 62.4772C63.4637 62.2405 62.9606 61.6012 62.7534 60.8376C62.6469 60.4529 62.6173 60.0445 62.6587 59.6183C62.6765 59.4052 62.712 59.1862 62.7653 58.9672C62.8185 58.7482 62.8955 58.5351 62.9784 58.3102C63.4164 57.221 63.6354 56.0786 63.6295 54.9777C63.6295 53.8708 63.4164 52.8113 63.0376 51.8701C62.8363 51.3966 62.6173 50.9527 62.3391 50.5383C62.0787 50.1299 61.7649 49.7511 61.4394 49.4078C61.1138 49.0645 60.7409 48.7567 60.3739 48.4844C59.9951 48.2121 59.5926 47.9754 59.1842 47.7741C58.8409 47.6025 58.539 47.413 58.3141 47.2177C58.2016 47.1171 58.0892 47.0165 58.0063 46.9158C57.9175 46.8152 57.8524 46.7146 57.7873 46.608C57.5564 46.1996 57.5564 45.7853 57.8702 45.3354C58.1484 44.9389 58.616 44.56 59.196 44.2641Z" fill="url(#paint11_linear_1304_2614)"/>
<path d="M48.5594 39.4282C47.7721 39.3926 46.9079 39.1677 46.2391 38.6054C45.9846 38.3923 45.7596 38.1733 45.5288 37.9365C45.3039 37.6998 45.0789 37.4512 44.8777 37.1907C44.6764 36.9303 44.4811 36.6521 44.3035 36.368C44.12 36.0779 43.9661 35.782 43.8122 35.4623C43.2144 34.2075 42.8593 32.7455 42.8593 31.1651C42.8533 29.5846 43.2026 27.8918 43.9365 26.2463C44.6705 24.6007 45.8011 22.9848 47.2927 21.6175C48.1746 20.8007 49.3762 20.3212 50.489 20.2383C51.6077 20.1614 52.6199 20.4692 53.2355 21.1025C53.8452 21.7359 53.9635 22.5409 53.7564 23.2985C53.6558 23.6714 53.4723 24.0562 53.2296 24.4054C52.981 24.7487 52.6732 25.0861 52.3003 25.3761C51.3769 26.1042 50.6192 26.9861 50.0688 27.945C49.7906 28.4186 49.5716 28.9217 49.394 29.413C49.3111 29.6675 49.2342 29.922 49.175 30.1706C49.1099 30.4192 49.0684 30.6797 49.0329 30.9283C48.956 31.4255 48.9441 31.9405 48.9678 32.4258C48.9796 32.6685 49.0092 32.9171 49.0448 33.1539C49.0803 33.3966 49.1217 33.6215 49.1809 33.8583C49.4117 34.7876 49.8083 35.6399 50.3114 36.3976C50.5305 36.7172 50.6844 37.0309 50.785 37.315C50.8383 37.463 50.8797 37.5991 50.9034 37.7294C50.9152 37.7945 50.927 37.8596 50.927 37.9188C50.933 37.978 50.9389 38.0431 50.9389 38.1023C50.933 38.564 50.7317 38.9191 50.2404 39.15C50.1339 39.2032 50.0096 39.2447 49.8794 39.2861C49.7491 39.3216 49.6189 39.3571 49.4768 39.3749C49.1987 39.4281 48.879 39.44 48.5594 39.4282Z" fill="url(#paint12_linear_1304_2614)"/>
<path d="M48.0326 37.6643C47.6715 36.9658 47.4347 36.1016 47.5886 35.2433C47.8254 33.9826 48.3108 32.7099 49.1039 31.5735C49.8912 30.4311 50.9803 29.3952 52.3417 28.6021C53.7031 27.8089 55.3368 27.2584 57.1421 27.069C58.9415 26.8796 60.9007 27.069 62.8363 27.6728C63.9787 28.0338 65.0086 28.8211 65.6242 29.7504C65.7012 29.8628 65.7781 29.9812 65.8432 30.0996C65.9083 30.218 65.9675 30.3423 66.0208 30.4607C66.1273 30.7034 66.2043 30.946 66.2635 31.1828C66.37 31.6623 66.3582 32.1358 66.2457 32.5561C66.009 33.3966 65.3697 33.8997 64.6061 34.1069C64.2214 34.2134 63.813 34.243 63.3868 34.2016C63.1737 34.1838 62.9547 34.1483 62.7357 34.095C62.5167 34.0417 62.3036 33.9648 62.0787 33.8819C60.9895 33.4439 59.8471 33.2249 58.7462 33.2308C57.6393 33.2308 56.5798 33.4439 55.6386 33.8227C55.1651 34.024 54.7212 34.243 54.3068 34.5212C53.8984 34.7816 53.5196 35.0954 53.1763 35.4209C52.833 35.7465 52.5252 36.1194 52.2529 36.4864C51.9806 36.8652 51.7439 37.2677 51.5426 37.6761C51.371 38.0194 51.1815 38.3213 50.9862 38.5462C50.8856 38.6587 50.785 38.7711 50.6843 38.854C50.5837 38.9428 50.4831 39.0079 50.3765 39.073C49.9681 39.3039 49.5538 39.3039 49.1039 38.9901C48.7074 38.7119 48.3285 38.2443 48.0326 37.6643Z" fill="url(#paint13_linear_1304_2614)"/>
<path d="M52.087 47.1588C53.9667 47.1588 55.4905 45.635 55.4905 43.7553C55.4905 41.8756 53.9667 40.3518 52.087 40.3518C50.2073 40.3518 48.6835 41.8756 48.6835 43.7553C48.6835 45.635 50.2073 47.1588 52.087 47.1588Z" fill="url(#paint14_linear_1304_2614)"/>
<defs>
<linearGradient id="paint0_linear_1304_2614" x1="96.0818" y1="30.9535" x2="96.0818" y2="60.851" gradientUnits="userSpaceOnUse">
<stop stop-color="#58595B"/>
<stop offset="1"/>
</linearGradient>
<linearGradient id="paint1_linear_1304_2614" x1="114.379" y1="30.7746" x2="114.379" y2="60.388" gradientUnits="userSpaceOnUse">
<stop stop-color="#58595B"/>
<stop offset="1"/>
</linearGradient>
<linearGradient id="paint2_linear_1304_2614" x1="131.096" y1="37.5226" x2="131.096" y2="73.3577" gradientUnits="userSpaceOnUse">
<stop stop-color="#58595B"/>
<stop offset="1"/>
</linearGradient>
<linearGradient id="paint3_linear_1304_2614" x1="147.393" y1="30.7746" x2="147.393" y2="60.388" gradientUnits="userSpaceOnUse">
<stop stop-color="#58595B"/>
<stop offset="1"/>
</linearGradient>
<linearGradient id="paint4_linear_1304_2614" x1="165.374" y1="30.9114" x2="165.374" y2="60.388" gradientUnits="userSpaceOnUse">
<stop stop-color="#58595B"/>
<stop offset="1"/>
</linearGradient>
<linearGradient id="paint5_linear_1304_2614" x1="191.819" y1="30.9114" x2="191.819" y2="60.388" gradientUnits="userSpaceOnUse">
<stop stop-color="#58595B"/>
<stop offset="1"/>
</linearGradient>
<linearGradient id="paint6_linear_1304_2614" x1="219.504" y1="30.8691" x2="219.504" y2="60.388" gradientUnits="userSpaceOnUse">
<stop stop-color="#58595B"/>
<stop offset="1"/>
</linearGradient>
<linearGradient id="paint7_linear_1304_2614" x1="247.97" y1="30.8691" x2="247.97" y2="60.388" gradientUnits="userSpaceOnUse">
<stop stop-color="#58595B"/>
<stop offset="1"/>
</linearGradient>
<linearGradient id="paint8_linear_1304_2614" x1="43.341" y1="47.698" x2="42.5589" y2="62.7468" gradientUnits="userSpaceOnUse">
<stop stop-color="#70CDDD"/>
<stop offset="0.5054" stop-color="#48A4DB"/>
<stop offset="1" stop-color="#4067B1"/>
</linearGradient>
<linearGradient id="paint9_linear_1304_2614" x1="40.976" y1="41.4949" x2="40.3116" y2="54.2783" gradientUnits="userSpaceOnUse">
<stop stop-color="#70CDDD"/>
<stop offset="0.5054" stop-color="#48A4DB"/>
<stop offset="1" stop-color="#4067B1"/>
</linearGradient>
<linearGradient id="paint10_linear_1304_2614" x1="72.7754" y1="40.7208" x2="61.5827" y2="50.809" gradientUnits="userSpaceOnUse">
<stop stop-color="#8DC85C"/>
<stop offset="1" stop-color="#2BB673"/>
</linearGradient>
<linearGradient id="paint11_linear_1304_2614" x1="68.3773" y1="48.2977" x2="58.8693" y2="56.8674" gradientUnits="userSpaceOnUse">
<stop stop-color="#8DC85C"/>
<stop offset="1" stop-color="#2BB673"/>
</linearGradient>
<linearGradient id="paint12_linear_1304_2614" x1="55.8883" y1="23.9898" x2="43.261" y2="35.371" gradientUnits="userSpaceOnUse">
<stop stop-color="#F6EB16"/>
<stop offset="0.5054" stop-color="#F9A11B"/>
<stop offset="1" stop-color="#F05523"/>
</linearGradient>
<linearGradient id="paint13_linear_1304_2614" x1="63.2907" y1="27.0187" x2="49.4941" y2="39.4538" gradientUnits="userSpaceOnUse">
<stop stop-color="#F6EB16"/>
<stop offset="0.5054" stop-color="#F9A11B"/>
<stop offset="1" stop-color="#F05523"/>
</linearGradient>
<linearGradient id="paint14_linear_1304_2614" x1="52.2635" y1="40.3602" x2="51.9102" y2="47.1592" gradientUnits="userSpaceOnUse">
<stop stop-color="#58595B"/>
<stop offset="1"/>
</linearGradient>
</defs>
</svg>
