<svg width="100" height="100" viewBox="0 0 100 100" fill="none" xmlns="http://www.w3.org/2000/svg">
<g clip-path="url(#clip0_2114_40891)">
<path d="M96.5517 75.8618H3.44828C1.55156 75.8618 0 74.3103 0 72.4136V24.1377H100V72.4136C100 74.3103 98.4484 75.8618 96.5517 75.8618Z" fill="#2AB793"/>
<path d="M100 60.3447H82.7586V61.2068C82.7586 64.4825 79.9998 67.2413 76.7241 67.2413C73.4484 67.2413 70.6897 64.4825 70.6897 61.2068V60.3447H0V72.4137C0 74.3104 1.55156 75.862 3.44828 75.862H96.5517C98.4484 75.862 100 74.3104 100 72.4137V60.3447Z" fill="#239172"/>
<path d="M5.17236 67.2412H31.0344V70.6895H5.17236V67.2412Z" fill="#A3C1AF"/>
<path d="M22.4138 32.7588H50V36.2071H22.4138V32.7588Z" fill="white"/>
<path d="M17.2414 37.9312C17.2414 40.7876 14.9255 43.1036 12.069 43.1036C9.21257 43.1036 6.89661 40.7876 6.89661 37.9312C6.89661 35.0748 9.21257 32.7588 12.069 32.7588C14.9255 32.7588 17.2414 35.0748 17.2414 37.9312Z" fill="#F4B12A"/>
<path d="M22.4138 39.6553H39.6552V43.1035H22.4138V39.6553Z" fill="white"/>
</g>
<defs>
<clipPath id="clip0_2114_40891">
<rect width="100" height="100" fill="white"/>
</clipPath>
</defs>
</svg>
