<svg width="46" height="43" viewBox="0 0 46 43" fill="none" xmlns="http://www.w3.org/2000/svg">
<path d="M19.5186 29.0584C20.0454 29.6385 20.5012 30.4139 20.5781 31.2781C20.6077 31.6037 20.6136 31.9233 20.6077 32.2489C20.6018 32.5744 20.584 32.9118 20.5426 33.2374C20.5012 33.5629 20.442 33.8944 20.365 34.2258C20.2881 34.5632 20.1875 34.8829 20.075 35.2143C19.6133 36.5225 18.8261 37.8069 17.7133 38.9256C16.6005 40.0443 15.1562 40.9973 13.4752 41.6425C11.7941 42.2877 9.85267 42.631 7.82833 42.5422C6.62674 42.4949 5.437 41.9858 4.59056 41.2578C3.74413 40.5238 3.24692 39.5886 3.26468 38.7066C3.28244 37.8247 3.76781 37.1795 4.44851 36.7829C4.7859 36.5876 5.18248 36.4455 5.60273 36.3745C6.02299 36.3094 6.47876 36.2857 6.94638 36.3449C8.11244 36.481 9.27259 36.3922 10.338 36.1081C10.8708 35.972 11.3798 35.7707 11.8533 35.5458C12.0901 35.4274 12.3209 35.2972 12.5459 35.167C12.7649 35.0368 12.9839 34.8769 13.1851 34.729C13.5936 34.433 13.9605 34.0719 14.292 33.7168C14.4577 33.5333 14.6116 33.338 14.7537 33.1486C14.8958 32.9532 15.0319 32.7638 15.1562 32.5507C15.6475 31.7339 15.973 30.8519 16.1506 29.9522C16.2276 29.5734 16.3341 29.2419 16.4643 28.9697C16.5294 28.8276 16.6005 28.7033 16.6715 28.5908C16.707 28.5376 16.7484 28.4843 16.784 28.4369C16.8254 28.3896 16.8609 28.3422 16.9023 28.3008C17.2338 27.9812 17.6245 27.8687 18.1394 28.0522C18.2519 28.0936 18.3703 28.1469 18.4887 28.212C18.6071 28.2771 18.7195 28.3481 18.8379 28.431C19.0687 28.6086 19.3055 28.8217 19.5186 29.0584Z" fill="url(#paint0_linear_1572_2042)"/>
<path d="M18.6485 30.6803C18.4117 31.4261 17.9678 32.2074 17.2516 32.7046C16.1921 33.4327 14.9491 33.9831 13.5877 34.2317C12.2203 34.4863 10.7228 34.4448 9.19566 34.0423C7.66853 33.6398 6.12364 32.8763 4.71488 31.7339C3.30613 30.5974 2.0572 29.0762 1.11606 27.2768C0.565579 26.2113 0.388005 24.9269 0.612932 23.8378C0.636608 23.7016 0.666204 23.5655 0.701719 23.4353C0.737233 23.305 0.784587 23.1807 0.83194 23.0564C0.926646 22.8137 1.04503 22.5829 1.16933 22.3757C1.42977 21.9614 1.77308 21.6358 2.1519 21.4168C2.91547 20.9907 3.72047 21.0854 4.40709 21.476C4.7504 21.6714 5.06412 21.9436 5.3364 22.2692C5.47845 22.4349 5.60867 22.6125 5.72114 22.8019C5.8336 22.9913 5.93423 23.1985 6.03485 23.4175C6.49654 24.4948 7.14765 25.4596 7.92897 26.235C8.7103 27.0163 9.61 27.6142 10.5452 28.0167C11.0247 28.212 11.4923 28.3659 11.9777 28.4665C12.4512 28.5731 12.9425 28.6204 13.416 28.6322C13.8895 28.6441 14.369 28.6027 14.8188 28.5316C15.2805 28.4547 15.7304 28.3363 16.1625 28.1942C16.5235 28.0699 16.8728 27.993 17.1746 27.9752C17.3226 27.9634 17.4706 27.9575 17.6067 27.9693C17.7429 27.9752 17.8613 28.0048 17.9796 28.0285C18.4354 28.1528 18.7255 28.4488 18.8202 28.9874C18.9089 29.4609 18.8438 30.0588 18.6485 30.6803Z" fill="url(#paint1_linear_1572_2042)"/>
<path d="M26.4321 24.7908C26.4677 24.0035 26.6926 23.1393 27.2549 22.4705C27.468 22.216 27.687 21.991 27.9238 21.7602C28.1605 21.5353 28.4091 21.3103 28.6696 21.1091C28.93 20.9078 29.2082 20.7125 29.4923 20.5349C29.7824 20.3514 30.0783 20.1975 30.398 20.0436C31.6528 19.4458 33.1148 19.0907 34.6952 19.0907C36.2756 19.0847 37.9685 19.434 39.614 20.1679C41.2596 20.9019 42.8755 22.0325 44.2428 23.5241C45.0596 24.406 45.5391 25.6076 45.6219 26.7204C45.6989 27.8391 45.3911 28.8513 44.7578 29.4669C44.1244 30.0765 43.3194 30.1949 42.5618 29.9878C42.1889 29.8871 41.8041 29.7036 41.4549 29.461C41.1116 29.2124 40.7742 28.9046 40.4841 28.5317C39.7561 27.6083 38.8741 26.8506 37.9152 26.3002C37.4417 26.022 36.9386 25.8029 36.4473 25.6254C36.1928 25.5425 35.9383 25.4715 35.6897 25.4064C35.4411 25.3412 35.1806 25.2998 34.932 25.2643C34.4348 25.1874 33.9198 25.1755 33.4345 25.1992C33.1918 25.211 32.9432 25.2406 32.7064 25.2761C32.4637 25.3117 32.2388 25.3531 32.002 25.4123C31.0727 25.6431 30.2204 26.0397 29.4627 26.5428C29.1431 26.7618 28.8294 26.9157 28.5453 27.0164C28.3973 27.0696 28.2612 27.1111 28.1309 27.1347C28.0658 27.1466 28.0007 27.1584 27.9415 27.1584C27.8823 27.1643 27.8172 27.1703 27.758 27.1703C27.2963 27.1643 26.9412 26.9631 26.7103 26.4718C26.6571 26.3653 26.6156 26.241 26.5742 26.1107C26.5387 25.9805 26.5032 25.8503 26.4854 25.7082C26.4321 25.43 26.4203 25.1104 26.4321 24.7908Z" fill="url(#paint2_linear_1572_2042)"/>
<path d="M28.196 24.2639C28.8945 23.9029 29.7587 23.6661 30.617 23.82C31.8777 24.0568 33.1503 24.5421 34.2868 25.3353C35.4292 26.1225 36.4651 27.2116 37.2582 28.573C38.0514 29.9344 38.6019 31.5681 38.7913 33.3735C38.9807 35.1729 38.7913 37.1321 38.1875 39.0677C37.8265 40.21 37.0392 41.24 36.1099 41.8556C35.9974 41.9325 35.8791 42.0095 35.7607 42.0746C35.6423 42.1397 35.518 42.1989 35.3996 42.2521C35.1569 42.3587 34.9142 42.4356 34.6775 42.4948C34.198 42.6014 33.7245 42.5895 33.3042 42.4771C32.4637 42.2403 31.9606 41.601 31.7534 40.8375C31.6469 40.4527 31.6173 40.0443 31.6587 39.6181C31.6765 39.4051 31.712 39.186 31.7653 38.967C31.8185 38.748 31.8955 38.5349 31.9784 38.31C32.4164 37.2209 32.6354 36.0785 32.6295 34.9775C32.6295 33.8707 32.4164 32.8111 32.0376 31.87C31.8363 31.3965 31.6173 30.9525 31.3391 30.5382C31.0787 30.1298 30.7649 29.751 30.4394 29.4076C30.1138 29.0643 29.7409 28.7565 29.3739 28.4843C28.9951 28.212 28.5926 27.9752 28.1842 27.774C27.8409 27.6023 27.539 27.4129 27.3141 27.2176C27.2016 27.1169 27.0892 27.0163 27.0063 26.9157C26.9175 26.8151 26.8524 26.7144 26.7873 26.6079C26.5564 26.1995 26.5564 25.7851 26.8702 25.3353C27.1484 24.9387 27.616 24.5599 28.196 24.2639Z" fill="url(#paint3_linear_1572_2042)"/>
<path d="M17.5594 19.428C16.7721 19.3925 15.9079 19.1676 15.2391 18.6053C14.9846 18.3922 14.7596 18.1732 14.5288 17.9364C14.3039 17.6996 14.0789 17.451 13.8777 17.1906C13.6764 16.9302 13.4811 16.652 13.3035 16.3678C13.12 16.0778 12.9661 15.7818 12.8122 15.4622C12.2144 14.2074 11.8593 12.7453 11.8593 11.1649C11.8533 9.58452 12.2026 7.89165 12.9365 6.24614C13.6705 4.60062 14.8011 2.98469 16.2927 1.61737C17.1746 0.800535 18.3762 0.321094 19.489 0.238226C20.6077 0.161277 21.6199 0.469067 22.2355 1.10241C22.8452 1.73576 22.9635 2.54076 22.7564 3.29841C22.6558 3.67132 22.4723 4.05606 22.2296 4.40529C21.981 4.7486 21.6732 5.08599 21.3003 5.37602C20.3769 6.10408 19.6192 6.98602 19.0688 7.94492C18.7906 8.41845 18.5716 8.92158 18.394 9.41287C18.3111 9.66739 18.2342 9.92192 18.175 10.1705C18.1099 10.4191 18.0684 10.6796 18.0329 10.9282C17.956 11.4254 17.9441 11.9403 17.9678 12.4257C17.9796 12.6684 18.0092 12.917 18.0448 13.1538C18.0803 13.3964 18.1217 13.6214 18.1809 13.8581C18.4117 14.7874 18.8083 15.6398 19.3114 16.3974C19.5305 16.7171 19.6844 17.0308 19.785 17.3149C19.8382 17.4629 19.8797 17.599 19.9034 17.7292C19.9152 17.7943 19.927 17.8595 19.927 17.9187C19.933 17.9778 19.9389 18.043 19.9389 18.1021C19.933 18.5638 19.7317 18.919 19.2404 19.1498C19.1339 19.2031 19.0096 19.2445 18.8793 19.286C18.7491 19.3215 18.6189 19.357 18.4768 19.3748C18.1987 19.428 17.879 19.4399 17.5594 19.428Z" fill="url(#paint4_linear_1572_2042)"/>
<path d="M17.0326 17.6641C16.6715 16.9656 16.4347 16.1015 16.5886 15.2432C16.8254 13.9824 17.3108 12.7098 18.1039 11.5733C18.8912 10.4309 19.9803 9.39508 21.3417 8.60192C22.7031 7.80875 24.3368 7.25828 26.1421 7.06887C27.9415 6.87945 29.9007 7.06887 31.8363 7.67262C32.9787 8.03369 34.0086 8.82093 34.6242 9.75023C34.7012 9.86269 34.7781 9.98107 34.8432 10.0995C34.9083 10.2178 34.9675 10.3421 35.0208 10.4605C35.1273 10.7032 35.2043 10.9459 35.2635 11.1827C35.37 11.6621 35.3582 12.1356 35.2457 12.5559C35.009 13.3964 34.3697 13.8995 33.6061 14.1067C33.2214 14.2133 32.813 14.2428 32.3868 14.2014C32.1737 14.1837 31.9547 14.1481 31.7357 14.0949C31.5167 14.0416 31.3036 13.9646 31.0787 13.8818C29.9895 13.4438 28.8471 13.2248 27.7462 13.2307C26.6393 13.2307 25.5798 13.4438 24.6386 13.8226C24.1651 14.0238 23.7212 14.2428 23.3068 14.521C22.8984 14.7815 22.5196 15.0952 22.1763 15.4208C21.833 15.7463 21.5252 16.1192 21.2529 16.4862C20.9806 16.865 20.7439 17.2675 20.5426 17.6759C20.371 18.0192 20.1815 18.3211 19.9862 18.5461C19.8856 18.6585 19.785 18.771 19.6843 18.8538C19.5837 18.9426 19.4831 19.0077 19.3765 19.0729C18.9681 19.3037 18.5538 19.3037 18.1039 18.99C17.7074 18.7118 17.3285 18.2442 17.0326 17.6641Z" fill="url(#paint5_linear_1572_2042)"/>
<path d="M21.087 27.1586C22.9667 27.1586 24.4905 25.6349 24.4905 23.7552C24.4905 21.8755 22.9667 20.3517 21.087 20.3517C19.2073 20.3517 17.6835 21.8755 17.6835 23.7552C17.6835 25.6349 19.2073 27.1586 21.087 27.1586Z" fill="url(#paint6_linear_1572_2042)"/>
<defs>
<linearGradient id="paint0_linear_1572_2042" x1="12.341" y1="27.6979" x2="11.5589" y2="42.7466" gradientUnits="userSpaceOnUse">
<stop stop-color="#70CDDD"/>
<stop offset="0.5054" stop-color="#48A4DB"/>
<stop offset="1" stop-color="#4067B1"/>
</linearGradient>
<linearGradient id="paint1_linear_1572_2042" x1="9.97595" y1="21.4947" x2="9.31163" y2="34.2782" gradientUnits="userSpaceOnUse">
<stop stop-color="#70CDDD"/>
<stop offset="0.5054" stop-color="#48A4DB"/>
<stop offset="1" stop-color="#4067B1"/>
</linearGradient>
<linearGradient id="paint2_linear_1572_2042" x1="41.7754" y1="20.7206" x2="30.5827" y2="30.8088" gradientUnits="userSpaceOnUse">
<stop stop-color="#8DC85C"/>
<stop offset="1" stop-color="#2BB673"/>
</linearGradient>
<linearGradient id="paint3_linear_1572_2042" x1="37.3773" y1="28.2975" x2="27.8693" y2="36.8673" gradientUnits="userSpaceOnUse">
<stop stop-color="#8DC85C"/>
<stop offset="1" stop-color="#2BB673"/>
</linearGradient>
<linearGradient id="paint4_linear_1572_2042" x1="24.8883" y1="3.98968" x2="12.261" y2="15.3709" gradientUnits="userSpaceOnUse">
<stop stop-color="#F6EB16"/>
<stop offset="0.5054" stop-color="#F9A11B"/>
<stop offset="1" stop-color="#F05523"/>
</linearGradient>
<linearGradient id="paint5_linear_1572_2042" x1="32.2907" y1="7.01852" x2="18.4941" y2="19.4536" gradientUnits="userSpaceOnUse">
<stop stop-color="#F6EB16"/>
<stop offset="0.5054" stop-color="#F9A11B"/>
<stop offset="1" stop-color="#F05523"/>
</linearGradient>
<linearGradient id="paint6_linear_1572_2042" x1="21.2635" y1="20.3601" x2="20.9102" y2="27.1591" gradientUnits="userSpaceOnUse">
<stop stop-color="#58595B"/>
<stop offset="1"/>
</linearGradient>
</defs>
</svg>
