<svg width="36" height="30" viewBox="0 0 36 30" fill="none" xmlns="http://www.w3.org/2000/svg">
<path d="M1.368 27.224C4.896 25.936 7.724 24.088 9.852 21.68C12.036 19.216 13.128 16.64 13.128 13.952C13.128 13.56 12.988 13.224 12.708 12.944C12.484 12.608 12.148 12.44 11.7 12.44C11.252 12.44 10.58 12.664 9.684 13.112C8.676 13.616 7.724 13.868 6.828 13.868C5.26 13.868 3.86 13.336 2.628 12.272C1.452 11.208 0.864 9.724 0.864 7.82C0.864 5.58 1.592 3.844 3.048 2.612C4.504 1.324 6.184 0.679998 8.088 0.679998C10.832 0.679998 12.988 1.604 14.556 3.452C16.18 5.244 16.992 7.568 16.992 10.424C16.992 15.016 15.648 18.964 12.96 22.268C10.328 25.572 6.856 28.008 2.544 29.576L1.368 27.224ZM19.848 27.224C23.376 25.936 26.204 24.088 28.332 21.68C30.516 19.216 31.608 16.64 31.608 13.952C31.608 13.56 31.468 13.224 31.188 12.944C30.964 12.608 30.628 12.44 30.18 12.44C29.732 12.44 29.06 12.664 28.164 13.112C27.156 13.616 26.204 13.868 25.308 13.868C23.74 13.868 22.34 13.336 21.108 12.272C19.932 11.208 19.344 9.724 19.344 7.82C19.344 5.58 20.072 3.844 21.528 2.612C22.984 1.324 24.664 0.679998 26.568 0.679998C29.312 0.679998 31.468 1.604 33.036 3.452C34.66 5.244 35.472 7.568 35.472 10.424C35.472 15.016 34.128 18.964 31.44 22.268C28.808 25.572 25.336 28.008 21.024 29.576L19.848 27.224Z" fill="#757575"/>
</svg>
